<svg width="24" height="31" viewBox="0 0 24 31" fill="none" xmlns="http://www.w3.org/2000/svg">
<g clip-path="url(#clip0_440_2036)">
<path d="M11.9999 18.1292C15.3089 18.1292 17.9999 15.4188 17.9999 12.0861C17.9999 8.7533 15.3089 6.04297 11.9999 6.04297C8.69097 6.04297 6 8.7533 6 12.0861C6 15.4188 8.69097 18.1292 11.9999 18.1292ZM11.9999 9.06452C13.6544 9.06452 14.9999 10.4197 14.9999 12.0861C14.9999 13.7525 13.6544 15.1076 11.9999 15.1076C10.3455 15.1076 8.99997 13.7525 8.99997 12.0861C8.99997 10.4197 10.3455 9.06452 11.9999 9.06452Z" fill="#06D6E3"/>
<path d="M11.13 29.9345C11.3839 30.1171 11.688 30.2153 12 30.2153C12.312 30.2153 12.6161 30.1171 12.87 29.9345C13.326 29.6097 24.0434 21.8156 23.9999 12.0862C23.9999 5.42217 18.6164 0 12 0C5.38357 0 0.000132055 5.42217 0.000132055 12.0786C-0.0433675 21.8156 10.674 29.6097 11.13 29.9345ZM12 3.02155C16.9634 3.02155 20.9999 7.08705 20.9999 12.0938C21.0314 18.7986 14.418 24.819 12 26.7936C9.58353 24.8175 2.9686 18.7956 3.0001 12.0862C3.0001 7.08705 7.03655 3.02155 12 3.02155Z" fill="#06D6E3"/>
</g>
<defs>
<clipPath id="clip0_440_2036">
<rect width="24" height="30.2155" fill="white"/>
</clipPath>
</defs>
</svg>
