<?xml version="1.0" encoding="utf-8"?>
<!-- Generator: Adobe Illustrator 23.0.1, SVG Export Plug-In . SVG Version: 6.00 Build 0)  -->
<svg version="1.1" id="Слой_1" xmlns="http://www.w3.org/2000/svg" xmlns:xlink="http://www.w3.org/1999/xlink" x="0px" y="0px"
	 viewBox="0 0 335.4 314.1" style="enable-background:new 0 0 335.4 314.1;" xml:space="preserve">
<style type="text/css">
	.st0{fill:#FFFFFF;}
</style>
<g>
	<g>
		<path className="st0" d="M130.5,246.6c2.3,1.5,4.1,3.6,5.4,6.3c1.3,2.7,1.9,5.8,1.9,9.2c0,5.2-1.4,9.3-4.1,12.5
			c-2.7,3.2-6.3,4.7-10.8,4.7h-7.3c-0.3,0-0.4,0.1-0.4,0.4v24c0,0.3-0.1,0.5-0.3,0.7c-0.2,0.2-0.4,0.3-0.7,0.3h-7.9
			c-0.3,0-0.5-0.1-0.7-0.3c-0.2-0.2-0.3-0.4-0.3-0.7v-58.3c0-0.3,0.1-0.5,0.3-0.7c0.2-0.2,0.4-0.3,0.7-0.3h16.2
			C125.5,244.3,128.2,245.1,130.5,246.6z M126,269c1.3-1.6,1.9-3.9,1.9-6.7c0-2.9-0.6-5.2-1.9-6.8c-1.3-1.7-3-2.5-5.1-2.5h-5.2
			c-0.3,0-0.4,0.1-0.4,0.4v17.7c0,0.3,0.1,0.4,0.4,0.4h5.2C123,271.5,124.7,270.7,126,269z"/>
		<path className="st0" d="M176.4,244.7c0.2,0.2,0.3,0.4,0.3,0.7v6.5c0,0.3-0.1,0.5-0.3,0.7s-0.4,0.3-0.7,0.3h-10.9
			c-0.3,0-0.4,0.1-0.4,0.4v50.2c0,0.3-0.1,0.5-0.3,0.7s-0.4,0.3-0.7,0.3h-7.9c-0.3,0-0.5-0.1-0.7-0.3c-0.2-0.2-0.3-0.4-0.3-0.7
			v-50.2c0-0.3-0.1-0.4-0.4-0.4h-10.3c-0.3,0-0.5-0.1-0.7-0.3s-0.3-0.4-0.3-0.7v-6.5c0-0.3,0.1-0.5,0.3-0.7s0.4-0.3,0.7-0.3h32.1
			C175.9,244.4,176.2,244.5,176.4,244.7z"/>
		<path className="st0" d="M206.4,303.9l-7.3-24.7c-0.1-0.2-0.3-0.3-0.4-0.3h-4.6c-0.3,0-0.4,0.1-0.4,0.4v24.5c0,0.3-0.1,0.5-0.3,0.7
			s-0.4,0.3-0.7,0.3h-7.9c-0.3,0-0.5-0.1-0.7-0.3c-0.2-0.2-0.3-0.4-0.3-0.7v-58.2c0-0.3,0.1-0.5,0.3-0.7s0.4-0.3,0.7-0.3H201
			c3,0,5.7,0.7,8.1,2.2c2.3,1.5,4.1,3.5,5.4,6.2c1.3,2.7,1.9,5.7,1.9,9.2c0,3.6-0.7,6.6-2.1,9.2c-1.4,2.6-3.3,4.5-5.8,5.9
			c-0.2,0.1-0.3,0.2-0.3,0.5l8.4,25.9c0.1,0.1,0.1,0.3,0.1,0.4c0,0.5-0.3,0.8-0.9,0.8h-8.3C206.9,304.7,206.6,304.5,206.4,303.9z
			 M193.6,253.5v17.1c0,0.3,0.1,0.4,0.4,0.4h5.3c2.1,0,3.7-0.8,5-2.4s1.9-3.8,1.9-6.5c0-2.8-0.6-5-1.9-6.6c-1.3-1.6-3-2.5-5-2.5H194
			C193.8,253.1,193.6,253.2,193.6,253.5z"/>
		<path className="st0" d="M223.7,304.4c-0.2-0.2-0.3-0.4-0.3-0.7v-58.2c0-0.3,0.1-0.5,0.3-0.7s0.4-0.3,0.7-0.3h7.9
			c0.3,0,0.5,0.1,0.7,0.3s0.3,0.4,0.3,0.7v58.2c0,0.3-0.1,0.5-0.3,0.7s-0.4,0.3-0.7,0.3h-7.9C224.1,304.7,223.9,304.6,223.7,304.4z"
			/>
	</g>
	<g>
		<path className="st0" d="M98.1,177.1c0.7,0.8,1,1.8,1,3.1s-0.3,2.3-1,3s-1.5,1.2-2.6,1.2h-2c-0.1,0-0.1,0-0.1,0.1v6.2
			c0,0.1-0.1,0.2-0.2,0.2h-1.6c-0.1,0-0.2-0.1-0.2-0.2v-14.6c0-0.1,0.1-0.2,0.2-0.2h3.8C96.6,175.9,97.5,176.3,98.1,177.1z
			 M96.6,182.1c0.4-0.5,0.5-1.1,0.5-1.8c0-0.8-0.2-1.4-0.5-1.9c-0.4-0.5-0.8-0.7-1.4-0.7h-1.6c-0.1,0-0.1,0-0.1,0.1v4.9
			c0,0.1,0,0.1,0.1,0.1h1.6C95.7,182.8,96.2,182.5,96.6,182.1z"/>
		<path className="st0" d="M106,180.1c0.1,0.1,0.1,0.2,0.1,0.3l-0.3,1.6c0,0.1-0.1,0.2-0.3,0.1c-0.2-0.1-0.4-0.1-0.6-0.1
			c-0.1,0-0.2,0-0.4,0c-0.4,0-0.8,0.3-1.1,0.7c-0.3,0.4-0.4,1-0.4,1.6v6.3c0,0.1-0.1,0.2-0.2,0.2h-1.6c-0.1,0-0.2-0.1-0.2-0.2v-10.5
			c0-0.1,0.1-0.2,0.2-0.2h1.6c0.1,0,0.2,0.1,0.2,0.2v1.2v0.1c0,0,0,0,0.1-0.1c0.4-1.1,1.1-1.6,2-1.6
			C105.4,179.9,105.7,180,106,180.1z"/>
		<path className="st0" d="M108.1,190.2c-0.7-0.6-1-1.4-1-2.5v-4.4c0-1,0.3-1.8,1-2.5c0.7-0.6,1.5-0.9,2.6-0.9s2,0.3,2.7,0.9
			c0.7,0.6,1,1.5,1,2.5v4.4c0,1-0.3,1.9-1,2.5s-1.5,0.9-2.7,0.9C109.6,191.1,108.8,190.8,108.1,190.2z M111.9,188.8
			c0.3-0.3,0.5-0.7,0.5-1.3v-4.2c0-0.5-0.2-0.9-0.5-1.3c-0.3-0.3-0.7-0.5-1.1-0.5s-0.8,0.2-1.1,0.5c-0.3,0.3-0.4,0.8-0.4,1.3v4.2
			c0,0.5,0.1,1,0.4,1.3s0.7,0.5,1.1,0.5S111.6,189.1,111.9,188.8z"/>
		<path className="st0" d="M119,179.9C119,180,119,180,119,179.9l1.6,0.1c0.1,0,0.2,0.1,0.2,0.2v1.1c0,0.1-0.1,0.2-0.2,0.2h-1.5
			c-0.1,0-0.1,0-0.1,0.1v9.1c0,0.1-0.1,0.2-0.2,0.2h-1.6c-0.1,0-0.2-0.1-0.2-0.2v-9.1c0-0.1,0-0.1-0.1-0.1h-0.8
			c-0.1,0-0.2-0.1-0.2-0.2v-1.1c0-0.1,0.1-0.2,0.2-0.2h0.8c0.1,0,0.1,0,0.1-0.1v-0.6c0-1.3,0.3-2.2,0.8-2.7c0.5-0.6,1.4-0.8,2.6-0.8
			h0.3c0.1,0,0.2,0.1,0.2,0.2v1.3c0,0.1-0.1,0.2-0.2,0.2h-0.2c-0.5,0-0.8,0.2-1,0.5s-0.3,0.8-0.3,1.4v0.5H119z"/>
		<path className="st0" d="M129.3,186.3h-4.9c-0.1,0-0.1,0-0.1,0.1v1.2c0,0.5,0.1,0.9,0.4,1.3c0.3,0.3,0.7,0.5,1.1,0.5s0.7-0.1,1-0.4
			c0.3-0.2,0.4-0.6,0.5-0.9c0-0.1,0.1-0.2,0.2-0.2l1.6,0.1c0.1,0,0.1,0,0.2,0.1c0,0,0,0.1,0,0.2c-0.1,0.9-0.5,1.7-1.1,2.2
			c-0.6,0.5-1.4,0.8-2.5,0.8s-2-0.3-2.6-0.9c-0.7-0.6-1-1.4-1-2.5v-4.5c0-1,0.3-1.8,1-2.5c0.7-0.6,1.5-0.9,2.6-0.9s2,0.3,2.6,0.9
			c0.6,0.6,1,1.5,1,2.5V186.3C129.6,186.2,129.5,186.3,129.3,186.3z M124.8,182.1c-0.3,0.3-0.4,0.8-0.4,1.3v1.1c0,0.1,0,0.1,0.1,0.1
			h2.9c0.1,0,0.1,0,0.1-0.1v-1.1c0-0.5-0.1-0.9-0.4-1.3c-0.3-0.3-0.7-0.5-1.1-0.5C125.5,181.6,125.1,181.8,124.8,182.1z"/>
		<path className="st0" d="M132,190.3c-0.6-0.5-0.9-1.2-0.9-2.1V188c0-0.1,0.1-0.2,0.2-0.2h1.5c0.1,0,0.2,0.1,0.2,0.2v0.2
			c0,0.4,0.2,0.7,0.5,1s0.7,0.4,1.1,0.4c0.4,0,0.8-0.1,1-0.4c0.3-0.3,0.4-0.6,0.4-1c0-0.3-0.1-0.6-0.3-0.8s-0.4-0.4-0.7-0.5
			s-0.6-0.3-1.1-0.5c-0.6-0.2-1-0.5-1.4-0.7s-0.7-0.6-1-1s-0.4-1-0.4-1.6c0-1,0.3-1.7,0.9-2.3c0.6-0.5,1.4-0.8,2.5-0.8
			s1.9,0.3,2.5,0.8c0.6,0.6,0.9,1.3,0.9,2.3v0.1c0,0.1-0.1,0.2-0.2,0.2h-1.5c-0.1,0-0.2-0.1-0.2-0.2V183c0-0.4-0.1-0.7-0.4-1
			c-0.3-0.3-0.6-0.4-1.1-0.4c-0.4,0-0.8,0.1-1.1,0.4c-0.3,0.3-0.4,0.6-0.4,1c0,0.3,0.1,0.6,0.3,0.8s0.4,0.4,0.6,0.5
			c0.2,0.1,0.6,0.3,1.2,0.5c0.6,0.3,1.1,0.5,1.5,0.7s0.7,0.6,1,1s0.4,1,0.4,1.6c0,0.9-0.3,1.7-1,2.2c-0.6,0.5-1.5,0.8-2.6,0.8
			C133.5,191.1,132.6,190.8,132,190.3z"/>
		<path className="st0" d="M139.9,190.3c-0.6-0.5-0.9-1.2-0.9-2.1V188c0-0.1,0.1-0.2,0.2-0.2h1.5c0.1,0,0.2,0.1,0.2,0.2v0.2
			c0,0.4,0.2,0.7,0.5,1s0.7,0.4,1.1,0.4c0.4,0,0.8-0.1,1-0.4c0.3-0.3,0.4-0.6,0.4-1c0-0.3-0.1-0.6-0.3-0.8s-0.4-0.4-0.7-0.5
			s-0.6-0.3-1.1-0.5c-0.6-0.2-1-0.5-1.4-0.7s-0.7-0.6-1-1s-0.4-1-0.4-1.6c0-1,0.3-1.7,0.9-2.3c0.6-0.5,1.4-0.8,2.5-0.8
			s1.9,0.3,2.5,0.8c0.6,0.6,0.9,1.3,0.9,2.3v0.1c0,0.1-0.1,0.2-0.2,0.2h-1.5c-0.1,0-0.2-0.1-0.2-0.2V183c0-0.4-0.1-0.7-0.4-1
			c-0.3-0.3-0.6-0.4-1.1-0.4c-0.4,0-0.8,0.1-1.1,0.4c-0.3,0.3-0.4,0.6-0.4,1c0,0.3,0.1,0.6,0.3,0.8s0.4,0.4,0.6,0.5
			c0.2,0.1,0.6,0.3,1.2,0.5c0.6,0.3,1.1,0.5,1.5,0.7s0.7,0.6,1,1s0.4,1,0.4,1.6c0,0.9-0.3,1.7-1,2.2c-0.6,0.5-1.5,0.8-2.6,0.8
			C141.4,191.1,140.5,190.8,139.9,190.3z"/>
		<path className="st0" d="M147.8,177.9c-0.3-0.3-0.4-0.6-0.4-1s0.1-0.7,0.4-1c0.3-0.3,0.6-0.4,1-0.4s0.7,0.1,1,0.4
			c0.3,0.3,0.4,0.6,0.4,1s-0.1,0.7-0.4,1c-0.3,0.3-0.6,0.4-1,0.4C148.4,178.3,148.1,178.2,147.8,177.9z M147.8,190.7v-10.5
			c0-0.1,0.1-0.2,0.2-0.2h1.6c0.1,0,0.2,0.1,0.2,0.2v10.5c0,0.1-0.1,0.2-0.2,0.2H148C147.9,190.9,147.8,190.9,147.8,190.7z"/>
		<path className="st0" d="M153,190.2c-0.7-0.6-1-1.4-1-2.5v-4.4c0-1,0.3-1.8,1-2.5c0.7-0.6,1.5-0.9,2.6-0.9s2,0.3,2.7,0.9
			c0.7,0.6,1,1.5,1,2.5v4.4c0,1-0.3,1.9-1,2.5s-1.5,0.9-2.7,0.9C154.5,191.1,153.6,190.8,153,190.2z M156.8,188.8
			c0.3-0.3,0.5-0.7,0.5-1.3v-4.2c0-0.5-0.2-0.9-0.5-1.3c-0.3-0.3-0.7-0.5-1.1-0.5s-0.8,0.2-1.1,0.5s-0.4,0.8-0.4,1.3v4.2
			c0,0.5,0.1,1,0.4,1.3c0.3,0.3,0.7,0.5,1.1,0.5S156.5,189.1,156.8,188.8z"/>
		<path className="st0" d="M167.7,180.8c0.5,0.6,0.7,1.5,0.7,2.6v7.4c0,0.1-0.1,0.2-0.2,0.2h-1.6c-0.1,0-0.2-0.1-0.2-0.2v-7.2
			c0-0.6-0.1-1.1-0.4-1.4c-0.3-0.3-0.6-0.5-1.1-0.5s-0.8,0.2-1.1,0.5s-0.4,0.8-0.4,1.4c0,0.1,0,0.1,0,0.1v7.1c0,0.1-0.1,0.2-0.2,0.2
			h-1.6c-0.1,0-0.2-0.1-0.2-0.2v-10.5c0-0.1,0.1-0.2,0.2-0.2h1.6c0.1,0,0.2,0.1,0.2,0.2v0.6c0,0,0,0,0,0.1c0,0,0.1,0,0.1-0.1
			c0.5-0.6,1.2-0.9,2.2-0.9C166.6,179.9,167.3,180.2,167.7,180.8z"/>
		<path className="st0" d="M176.7,180.8c0.7,0.7,1,1.5,1,2.6v7.3c0,0.1-0.1,0.2-0.2,0.2h-1.6c-0.1,0-0.2-0.1-0.2-0.2v-0.5c0,0,0,0,0-0.1
			s0,0-0.1,0c-0.5,0.6-1.2,0.9-2.2,0.9c-0.8,0-1.5-0.2-2.2-0.7c-0.6-0.5-0.9-1.3-0.9-2.5s0.4-2.2,1.1-2.7c0.8-0.6,1.7-0.9,3-0.9h1.2
			c0.1,0,0.1,0,0.1-0.1v-0.6c0-0.6-0.1-1.1-0.4-1.4c-0.3-0.4-0.7-0.5-1.1-0.5c-0.4,0-0.7,0.1-0.9,0.4c-0.2,0.2-0.4,0.6-0.4,0.9
			c0,0.1-0.1,0.2-0.2,0.2H171c-0.1,0-0.2-0.1-0.2-0.2c0.1-0.9,0.4-1.7,1.1-2.2c0.7-0.6,1.5-0.9,2.4-0.9
			C175.1,179.8,176,180.2,176.7,180.8z M175,188.8c0.4-0.3,0.6-0.8,0.6-1.3V186c0-0.1,0-0.1-0.1-0.1h-1.3c-0.6,0-1,0.2-1.4,0.5
			c-0.3,0.3-0.5,0.8-0.5,1.3s0.1,0.9,0.4,1.2c0.3,0.3,0.6,0.4,1,0.4C174.2,189.3,174.7,189.1,175,188.8z"/>
		<path className="st0" d="M179.6,190.7v-14.6c0-0.1,0.1-0.2,0.2-0.2h1.6c0.1,0,0.2,0.1,0.2,0.2v14.6c0,0.1-0.1,0.2-0.2,0.2h-1.6
			C179.7,190.9,179.6,190.9,179.6,190.7z"/>
		<path className="st0" d="M192.1,181.5h-1.5c-0.1,0-0.1,0-0.1,0.1v6c0,0.6,0.1,1,0.3,1.2s0.5,0.3,0.9,0.3h0.2c0.1,0,0.2,0.1,0.2,0.2
			v1.4c0,0.1-0.1,0.2-0.2,0.2h-0.7c-0.9,0-1.6-0.2-2.1-0.5c-0.5-0.4-0.7-1-0.7-2v-6.8c0-0.1,0-0.1-0.1-0.1h-0.8
			c-0.1,0-0.2-0.1-0.2-0.2v-1.1c0-0.1,0.1-0.2,0.2-0.2h0.8c0.1,0,0.1,0,0.1-0.1v-2.4c0-0.1,0.1-0.2,0.2-0.2h1.6
			c0.1,0,0.2,0.1,0.2,0.2v2.4c0,0.1,0,0.1,0.1,0.1h1.5c0.1,0,0.2,0.1,0.2,0.2v1.1C192.4,181.4,192.3,181.5,192.1,181.5z"/>
		<path className="st0" d="M200.1,180.8c0.7,0.7,1,1.5,1,2.6v7.3c0,0.1-0.1,0.2-0.2,0.2h-1.6c-0.1,0-0.2-0.1-0.2-0.2v-0.5c0,0,0,0,0-0.1
			s0,0-0.1,0c-0.5,0.6-1.2,0.9-2.2,0.9c-0.8,0-1.5-0.2-2.2-0.7c-0.6-0.5-0.9-1.3-0.9-2.5s0.4-2.2,1.1-2.7c0.8-0.6,1.7-0.9,3-0.9h1.2
			c0.1,0,0.1,0,0.1-0.1v-0.6c0-0.6-0.1-1.1-0.4-1.4c-0.3-0.4-0.7-0.5-1.1-0.5c-0.4,0-0.7,0.1-0.9,0.4c-0.2,0.2-0.4,0.6-0.4,0.9
			c0,0.1-0.1,0.2-0.2,0.2h-1.7c-0.1,0-0.2-0.1-0.2-0.2c0.1-0.9,0.4-1.7,1.1-2.2c0.7-0.6,1.5-0.9,2.4-0.9
			C198.6,179.8,199.4,180.2,200.1,180.8z M198.5,188.8c0.4-0.3,0.6-0.8,0.6-1.3V186c0-0.1,0-0.1-0.1-0.1h-1.3c-0.6,0-1,0.2-1.4,0.5
			c-0.3,0.3-0.5,0.8-0.5,1.3s0.1,0.9,0.4,1.2c0.3,0.3,0.6,0.4,1,0.4C197.7,189.3,198.1,189.1,198.5,188.8z"/>
		<path className="st0" d="M204.7,176.1l-1.3,4.1c0,0.1-0.1,0.2-0.3,0.2h-1.2c-0.1,0-0.1,0-0.2-0.1c0,0,0-0.1,0-0.2l0.9-4.1
			c0-0.1,0.1-0.2,0.2-0.2h1.6C204.7,175.9,204.7,176,204.7,176.1z"/>
		<path className="st0" d="M205.8,190.7v-14.6c0-0.1,0.1-0.2,0.2-0.2h1.6c0.1,0,0.2,0.1,0.2,0.2v14.6c0,0.1-0.1,0.2-0.2,0.2H206
			C205.9,190.9,205.8,190.9,205.8,190.7z"/>
		<path className="st0" d="M210.1,177.9c-0.3-0.3-0.4-0.6-0.4-1s0.1-0.7,0.4-1c0.3-0.3,0.6-0.4,1-0.4s0.7,0.1,1,0.4
			c0.3,0.3,0.4,0.6,0.4,1s-0.1,0.7-0.4,1c-0.3,0.3-0.6,0.4-1,0.4C210.7,178.3,210.4,178.2,210.1,177.9z M210.1,190.7v-10.5
			c0-0.1,0.1-0.2,0.2-0.2h1.6c0.1,0,0.2,0.1,0.2,0.2v10.5c0,0.1-0.1,0.2-0.2,0.2h-1.6C210.2,190.9,210.1,190.9,210.1,190.7z"/>
		<path className="st0" d="M225.8,180.8c0.5,0.6,0.7,1.5,0.7,2.7v7.2c0,0.1-0.1,0.2-0.2,0.2h-1.6c-0.1,0-0.2-0.1-0.2-0.2v-7.1
			c0-0.6-0.1-1.1-0.4-1.5c-0.3-0.4-0.6-0.5-1-0.5c-0.5,0-0.8,0.2-1.1,0.5c-0.3,0.4-0.4,0.8-0.4,1.4v7.1c0,0.1-0.1,0.2-0.2,0.2h-1.6
			c-0.1,0-0.2-0.1-0.2-0.2v-7.1c0-0.6-0.1-1.1-0.4-1.5c-0.3-0.4-0.6-0.5-1-0.5c-0.5,0-0.8,0.2-1.1,0.5c-0.3,0.4-0.4,0.8-0.4,1.4v7.1
			c0,0.1-0.1,0.2-0.2,0.2h-1.6c-0.1,0-0.2-0.1-0.2-0.2V180c0-0.1,0.1-0.2,0.2-0.2h1.6c0.1,0,0.2,0.1,0.2,0.2v0.5v0.1c0,0,0,0,0.1,0
			c0.3-0.3,0.6-0.6,1-0.7c0.4-0.2,0.7-0.2,1.1-0.2c1.1,0,1.9,0.5,2.3,1.4c0,0,0,0,0.1,0c0,0,0,0,0.1-0.1c0.3-0.5,0.7-0.8,1.1-1.1
			c0.4-0.2,0.9-0.3,1.4-0.3C224.6,179.9,225.3,180.2,225.8,180.8z"/>
		<path className="st0" d="M235.1,180.8c0.5,0.6,0.7,1.5,0.7,2.6v7.4c0,0.1-0.1,0.2-0.2,0.2H234c-0.1,0-0.2-0.1-0.2-0.2v-7.2
			c0-0.6-0.1-1.1-0.4-1.4c-0.3-0.3-0.6-0.5-1.1-0.5s-0.8,0.2-1.1,0.5s-0.4,0.8-0.4,1.4c0,0.1,0,0.1,0,0.1v7.1c0,0.1-0.1,0.2-0.2,0.2
			H229c-0.1,0-0.2-0.1-0.2-0.2v-10.5c0-0.1,0.1-0.2,0.2-0.2h1.6c0.1,0,0.2,0.1,0.2,0.2v0.6c0,0,0,0,0,0.1c0,0,0.1,0,0.1-0.1
			c0.5-0.6,1.2-0.9,2.2-0.9C233.9,179.9,234.6,180.2,235.1,180.8z"/>
		<path className="st0" d="M238.1,177.9c-0.3-0.3-0.4-0.6-0.4-1s0.1-0.7,0.4-1c0.3-0.3,0.6-0.4,1-0.4s0.7,0.1,1,0.4
			c0.3,0.3,0.4,0.6,0.4,1s-0.1,0.7-0.4,1c-0.3,0.3-0.6,0.4-1,0.4C238.6,178.3,238.3,178.2,238.1,177.9z M238,190.7v-10.5
			c0-0.1,0.1-0.2,0.2-0.2h1.6c0.1,0,0.2,0.1,0.2,0.2v10.5c0,0.1-0.1,0.2-0.2,0.2h-1.6C238.1,190.9,238,190.9,238,190.7z"/>
		<path className="st0" d="M95.5,205.9c0.1,0.1,0.1,0.2,0.1,0.3l-0.3,1.6c0,0.1-0.1,0.2-0.3,0.1c-0.2-0.1-0.4-0.1-0.6-0.1
			c-0.1,0-0.2,0-0.4,0c-0.4,0-0.8,0.3-1.1,0.7s-0.4,1-0.4,1.6v6.3c0,0.1-0.1,0.2-0.2,0.2h-1.6c-0.1,0-0.2-0.1-0.2-0.2V206
			c0-0.1,0.1-0.2,0.2-0.2h1.6c0.1,0,0.2,0.1,0.2,0.2v1.2v0.1c0,0,0,0,0.1-0.1c0.4-1.1,1.1-1.6,2-1.6C95,205.7,95.3,205.7,95.5,205.9
			z"/>
		<path className="st0" d="M97.1,203.7c-0.3-0.3-0.4-0.6-0.4-1s0.1-0.7,0.4-1s0.6-0.4,1-0.4s0.7,0.1,1,0.4c0.3,0.3,0.4,0.6,0.4,1
			s-0.1,0.7-0.4,1s-0.6,0.4-1,0.4C97.7,204,97.4,203.9,97.1,203.7z M97.1,216.5V206c0-0.1,0.1-0.2,0.2-0.2H99c0.1,0,0.2,0.1,0.2,0.2
			v10.5c0,0.1-0.1,0.2-0.2,0.2h-1.6C97.2,216.7,97.1,216.6,97.1,216.5z"/>
		<path className="st0" d="M103.5,216.5l-2.6-10.5v-0.1c0-0.1,0.1-0.2,0.2-0.2h1.8c0.1,0,0.2,0.1,0.2,0.2l1.5,7.4v0.1c0,0,0,0,0-0.1
			l1.5-7.4c0-0.1,0.1-0.2,0.2-0.2h1.8c0.1,0,0.1,0,0.2,0.1c0,0,0,0.1,0,0.2l-2.6,10.5c0,0.1-0.1,0.2-0.2,0.2h-1.9
			C103.6,216.7,103.6,216.6,103.5,216.5z"/>
		<path className="st0" d="M110.7,215.9c-0.7-0.6-1-1.4-1-2.5V209c0-1,0.3-1.8,1-2.5c0.7-0.6,1.5-0.9,2.6-0.9s2,0.3,2.7,0.9
			c0.7,0.6,1,1.5,1,2.5v4.4c0,1-0.3,1.9-1,2.5s-1.5,0.9-2.7,0.9C112.2,216.9,111.3,216.6,110.7,215.9z M114.5,214.6
			c0.3-0.3,0.5-0.7,0.5-1.3v-4.2c0-0.5-0.2-0.9-0.5-1.3c-0.3-0.3-0.7-0.5-1.1-0.5s-0.8,0.2-1.1,0.5c-0.3,0.3-0.4,0.8-0.4,1.3v4.2
			c0,0.5,0.1,1,0.4,1.3s0.7,0.5,1.1,0.5S114.2,214.9,114.5,214.6z"/>
		<path className="st0" d="M117,220.9v-1.4c0-0.1,0.1-0.2,0.2-0.2c1.2,0,1.7-0.7,1.7-2.1V206c0-0.1,0.1-0.2,0.2-0.2h1.6
			c0.1,0,0.2,0.1,0.2,0.2v11.3c0,0.9-0.1,1.6-0.3,2.1c-0.2,0.5-0.5,1-1.1,1.3c-0.5,0.3-1.3,0.5-2.4,0.5
			C117.1,221.1,117,221.1,117,220.9z M119,203.7c-0.3-0.3-0.4-0.6-0.4-1s0.1-0.7,0.4-1s0.6-0.4,1-0.4s0.8,0.1,1,0.4
			c0.3,0.3,0.4,0.6,0.4,1s-0.1,0.7-0.4,1s-0.6,0.4-1,0.4C119.6,204,119.3,203.9,119,203.7z"/>
		<path className="st0" d="M123.3,216.5v-14.6c0-0.1,0.1-0.2,0.2-0.2h1.6c0.1,0,0.2,0.1,0.2,0.2v14.6c0,0.1-0.1,0.2-0.2,0.2h-1.6
			C123.4,216.7,123.3,216.6,123.3,216.5z"/>
		<path className="st0" d="M133.6,206.6c0.7,0.7,1,1.5,1,2.6v7.3c0,0.1-0.1,0.2-0.2,0.2h-1.6c-0.1,0-0.2-0.1-0.2-0.2V216c0,0,0,0,0-0.1
			c0,0,0,0-0.1,0c-0.5,0.6-1.2,0.9-2.2,0.9c-0.8,0-1.5-0.2-2.2-0.7c-0.6-0.5-0.9-1.3-0.9-2.5s0.4-2.2,1.1-2.7c0.8-0.6,1.7-0.9,3-0.9
			h1.2c0.1,0,0.1,0,0.1-0.1v-0.6c0-0.6-0.1-1.1-0.4-1.4c-0.3-0.4-0.7-0.5-1.1-0.5c-0.4,0-0.7,0.1-0.9,0.4c-0.2,0.2-0.4,0.6-0.4,0.9
			c0,0.1-0.1,0.2-0.2,0.2h-1.7c-0.1,0-0.2-0.1-0.2-0.2c0.1-0.9,0.4-1.7,1.1-2.2c0.7-0.6,1.5-0.9,2.4-0.9
			C132.1,205.6,132.9,205.9,133.6,206.6z M132,214.6c0.4-0.3,0.6-0.8,0.6-1.3v-1.5c0-0.1,0-0.1-0.1-0.1h-1.3c-0.6,0-1,0.2-1.4,0.5
			c-0.3,0.3-0.5,0.8-0.5,1.3s0.1,0.9,0.4,1.2c0.3,0.3,0.6,0.4,1,0.4C131.2,215.1,131.6,214.9,132,214.6z"/>
		<path className="st0" d="M143.1,206.5c0.5,0.6,0.7,1.5,0.7,2.6v7.4c0,0.1-0.1,0.2-0.2,0.2H142c-0.1,0-0.2-0.1-0.2-0.2v-7.2
			c0-0.6-0.1-1.1-0.4-1.4c-0.3-0.3-0.6-0.5-1.1-0.5s-0.8,0.2-1.1,0.5s-0.4,0.8-0.4,1.4c0,0.1,0,0.1,0,0.1v7.1c0,0.1-0.1,0.2-0.2,0.2
			H137c-0.1,0-0.2-0.1-0.2-0.2V206c0-0.1,0.1-0.2,0.2-0.2h1.6c0.1,0,0.2,0.1,0.2,0.2v0.6c0,0,0,0,0,0.1c0,0,0.1,0,0.1-0.1
			c0.5-0.6,1.2-0.9,2.2-0.9C141.9,205.6,142.6,205.9,143.1,206.5z"/>
		<path className="st0" d="M150,207.3h-1.5c-0.1,0-0.1,0-0.1,0.1v6c0,0.6,0.1,1,0.3,1.2s0.5,0.3,0.9,0.3h0.2c0.1,0,0.2,0.1,0.2,0.2v1.4
			c0,0.1-0.1,0.2-0.2,0.2h-0.7c-0.9,0-1.6-0.2-2.1-0.5c-0.5-0.4-0.7-1-0.7-2v-6.8c0-0.1,0-0.1-0.1-0.1h-0.8c-0.1,0-0.2-0.1-0.2-0.2
			V206c0-0.1,0.1-0.2,0.2-0.2h0.8c0.1,0,0.1,0,0.1-0.1v-2.4c0-0.1,0.1-0.2,0.2-0.2h1.6c0.1,0,0.2,0.1,0.2,0.2v2.4
			c0,0.1,0,0.1,0.1,0.1h1.5c0.1,0,0.2,0.1,0.2,0.2v1.1C150.2,207.2,150.1,207.3,150,207.3z"/>
		<path className="st0" d="M152,203.7c-0.3-0.3-0.4-0.6-0.4-1s0.1-0.7,0.4-1c0.3-0.3,0.6-0.4,1-0.4s0.7,0.1,1,0.4c0.3,0.3,0.4,0.6,0.4,1
			s-0.1,0.7-0.4,1c-0.3,0.3-0.6,0.4-1,0.4C152.5,204,152.2,203.9,152,203.7z M151.9,216.5V206c0-0.1,0.1-0.2,0.2-0.2h1.6
			c0.1,0,0.2,0.1,0.2,0.2v10.5c0,0.1-0.1,0.2-0.2,0.2h-1.6C152,216.7,151.9,216.6,151.9,216.5z"/>
		<path className="st0" d="M161.4,205.9c0.1,0.1,0.1,0.2,0.1,0.3l-0.3,1.6c0,0.1-0.1,0.2-0.3,0.1c-0.2-0.1-0.4-0.1-0.6-0.1
			c-0.1,0-0.2,0-0.4,0c-0.4,0-0.8,0.3-1.1,0.7s-0.4,1-0.4,1.6v6.3c0,0.1-0.1,0.2-0.2,0.2h-1.6c-0.1,0-0.2-0.1-0.2-0.2V206
			c0-0.1,0.1-0.2,0.2-0.2h1.6c0.1,0,0.2,0.1,0.2,0.2v1.2v0.1c0,0,0,0,0.1-0.1c0.4-1.1,1.1-1.6,2-1.6
			C160.9,205.7,161.2,205.7,161.4,205.9z"/>
		<path className="st0" d="M163,203.7c-0.3-0.3-0.4-0.6-0.4-1s0.1-0.7,0.4-1c0.3-0.3,0.6-0.4,1-0.4s0.7,0.1,1,0.4c0.3,0.3,0.4,0.6,0.4,1
			s-0.1,0.7-0.4,1c-0.3,0.3-0.6,0.4-1,0.4C163.6,204,163.3,203.9,163,203.7z M163,216.5V206c0-0.1,0.1-0.2,0.2-0.2h1.6
			c0.1,0,0.2,0.1,0.2,0.2v10.5c0,0.1-0.1,0.2-0.2,0.2h-1.6C163.1,216.7,163,216.6,163,216.5z"/>
		<path className="st0" d="M168,216c-0.6-0.5-0.9-1.2-0.9-2.1v-0.2c0-0.1,0.1-0.2,0.2-0.2h1.5c0.1,0,0.2,0.1,0.2,0.2v0.2
			c0,0.4,0.2,0.7,0.5,1s0.7,0.4,1.1,0.4c0.4,0,0.8-0.1,1-0.4c0.3-0.3,0.4-0.6,0.4-1c0-0.3-0.1-0.6-0.3-0.8s-0.4-0.4-0.7-0.5
			s-0.6-0.3-1.1-0.5c-0.6-0.2-1-0.5-1.4-0.7s-0.7-0.6-1-1s-0.4-1-0.4-1.6c0-1,0.3-1.7,0.9-2.3c0.6-0.5,1.4-0.8,2.5-0.8
			s1.9,0.3,2.5,0.8c0.6,0.6,0.9,1.3,0.9,2.3v0.1c0,0.1-0.1,0.2-0.2,0.2h-1.5c-0.1,0-0.2-0.1-0.2-0.2v-0.2c0-0.4-0.1-0.7-0.4-1
			c-0.3-0.3-0.6-0.4-1.1-0.4c-0.4,0-0.8,0.1-1.1,0.4c-0.3,0.3-0.4,0.6-0.4,1c0,0.3,0.1,0.6,0.3,0.8s0.4,0.4,0.6,0.5
			c0.2,0.1,0.6,0.3,1.2,0.5c0.6,0.3,1.1,0.5,1.5,0.7s0.7,0.6,1,1s0.4,1,0.4,1.6c0,0.9-0.3,1.7-1,2.2c-0.6,0.5-1.5,0.8-2.6,0.8
			C169.5,216.8,168.6,216.6,168,216z"/>
		<path className="st0" d="M182.2,206.5c0.5,0.6,0.7,1.5,0.7,2.6v7.4c0,0.1-0.1,0.2-0.2,0.2H181c-0.1,0-0.2-0.1-0.2-0.2v-7.2
			c0-0.6-0.1-1.1-0.4-1.4c-0.3-0.3-0.6-0.5-1.1-0.5s-0.8,0.2-1.1,0.5s-0.4,0.8-0.4,1.4c0,0.1,0,0.1,0,0.1v7.1c0,0.1-0.1,0.2-0.2,0.2
			H176c-0.1,0-0.2-0.1-0.2-0.2v-14.6c0-0.1,0.1-0.2,0.2-0.2h1.6c0.1,0,0.2,0.1,0.2,0.2v4.7c0,0,0,0,0,0.1c0,0,0.1,0,0.1-0.1
			c0.5-0.6,1.2-0.9,2.2-0.9C181,205.6,181.7,205.9,182.2,206.5z"/>
		<path className="st0" d="M189.5,203.7c-0.3-0.3-0.4-0.6-0.4-1s0.1-0.7,0.4-1c0.3-0.3,0.6-0.4,1-0.4s0.7,0.1,1,0.4
			c0.3,0.3,0.4,0.6,0.4,1s-0.1,0.7-0.4,1c-0.3,0.3-0.6,0.4-1,0.4C190,204,189.7,203.9,189.5,203.7z M189.4,216.5V206
			c0-0.1,0.1-0.2,0.2-0.2h1.6c0.1,0,0.2,0.1,0.2,0.2v10.5c0,0.1-0.1,0.2-0.2,0.2h-1.6C189.5,216.7,189.4,216.6,189.4,216.5z"/>
		<path className="st0" d="M200.3,206.5c0.5,0.6,0.7,1.5,0.7,2.6v7.4c0,0.1-0.1,0.2-0.2,0.2h-1.6c-0.1,0-0.2-0.1-0.2-0.2v-7.2
			c0-0.6-0.1-1.1-0.4-1.4c-0.3-0.3-0.6-0.5-1.1-0.5s-0.8,0.2-1.1,0.5s-0.4,0.8-0.4,1.4c0,0.1,0,0.1,0,0.1v7.1c0,0.1-0.1,0.2-0.2,0.2
			h-1.6c-0.1,0-0.2-0.1-0.2-0.2V206c0-0.1,0.1-0.2,0.2-0.2h1.6c0.1,0,0.2,0.1,0.2,0.2v0.6c0,0,0,0,0,0.1c0,0,0.1,0,0.1-0.1
			c0.5-0.6,1.2-0.9,2.2-0.9C199.1,205.6,199.8,205.9,200.3,206.5z"/>
		<path className="st0" d="M203.7,216c-0.6-0.5-0.9-1.2-0.9-2.1v-0.2c0-0.1,0.1-0.2,0.2-0.2h1.5c0.1,0,0.2,0.1,0.2,0.2v0.2
			c0,0.4,0.2,0.7,0.5,1s0.7,0.4,1.1,0.4c0.4,0,0.8-0.1,1-0.4c0.3-0.3,0.4-0.6,0.4-1c0-0.3-0.1-0.6-0.3-0.8s-0.4-0.4-0.7-0.5
			s-0.6-0.3-1.1-0.5c-0.6-0.2-1-0.5-1.4-0.7s-0.7-0.6-1-1s-0.4-1-0.4-1.6c0-1,0.3-1.7,0.9-2.3c0.6-0.5,1.4-0.8,2.5-0.8
			s1.9,0.3,2.5,0.8c0.6,0.6,0.9,1.3,0.9,2.3v0.1c0,0.1-0.1,0.2-0.2,0.2h-1.5c-0.1,0-0.2-0.1-0.2-0.2v-0.2c0-0.4-0.1-0.7-0.4-1
			c-0.3-0.3-0.6-0.4-1.1-0.4c-0.4,0-0.8,0.1-1.1,0.4c-0.3,0.3-0.4,0.6-0.4,1c0,0.3,0.1,0.6,0.3,0.8s0.4,0.4,0.6,0.5
			c0.2,0.1,0.6,0.3,1.2,0.5c0.6,0.3,1.1,0.5,1.5,0.7s0.7,0.6,1,1s0.4,1,0.4,1.6c0,0.9-0.3,1.7-1,2.2c-0.6,0.5-1.5,0.8-2.6,0.8
			C205.2,216.8,204.3,216.6,203.7,216z"/>
		<path className="st0" d="M215.5,207.3H214c-0.1,0-0.1,0-0.1,0.1v6c0,0.6,0.1,1,0.3,1.2s0.5,0.3,0.9,0.3h0.2c0.1,0,0.2,0.1,0.2,0.2v1.4
			c0,0.1-0.1,0.2-0.2,0.2h-0.7c-0.9,0-1.6-0.2-2.1-0.5c-0.5-0.4-0.7-1-0.7-2v-6.8c0-0.1,0-0.1-0.1-0.1H211c-0.1,0-0.2-0.1-0.2-0.2
			V206c0-0.1,0.1-0.2,0.2-0.2h0.8c0.1,0,0.1,0,0.1-0.1v-2.4c0-0.1,0.1-0.2,0.2-0.2h1.6c0.1,0,0.2,0.1,0.2,0.2v2.4
			c0,0.1,0,0.1,0.1,0.1h1.5c0.1,0,0.2,0.1,0.2,0.2v1.1C215.7,207.2,215.6,207.3,215.5,207.3z"/>
		<path className="st0" d="M217.5,203.7c-0.3-0.3-0.4-0.6-0.4-1s0.1-0.7,0.4-1c0.3-0.3,0.6-0.4,1-0.4s0.7,0.1,1,0.4
			c0.3,0.3,0.4,0.6,0.4,1s-0.1,0.7-0.4,1c-0.3,0.3-0.6,0.4-1,0.4C218.1,204,217.7,203.9,217.5,203.7z M217.5,216.5V206
			c0-0.1,0.1-0.2,0.2-0.2h1.6c0.1,0,0.2,0.1,0.2,0.2v10.5c0,0.1-0.1,0.2-0.2,0.2h-1.6C217.5,216.7,217.5,216.6,217.5,216.5z"/>
		<path className="st0" d="M225.9,207.3h-1.5c-0.1,0-0.1,0-0.1,0.1v6c0,0.6,0.1,1,0.3,1.2s0.5,0.3,0.9,0.3h0.2c0.1,0,0.2,0.1,0.2,0.2
			v1.4c0,0.1-0.1,0.2-0.2,0.2H225c-0.9,0-1.6-0.2-2.1-0.5c-0.5-0.4-0.7-1-0.7-2v-6.8c0-0.1,0-0.1-0.1-0.1h-0.8
			c-0.1,0-0.2-0.1-0.2-0.2V206c0-0.1,0.1-0.2,0.2-0.2h0.8c0.1,0,0.1,0,0.1-0.1v-2.4c0-0.1,0.1-0.2,0.2-0.2h1.6
			c0.1,0,0.2,0.1,0.2,0.2v2.4c0,0.1,0,0.1,0.1,0.1h1.5c0.1,0,0.2,0.1,0.2,0.2v1.1C226.2,207.2,226.1,207.3,225.9,207.3z"/>
		<path className="st0" d="M233,205.8h1.6c0.1,0,0.2,0.1,0.2,0.2v10.5c0,0.1-0.1,0.2-0.2,0.2H233c-0.1,0-0.2-0.1-0.2-0.2v-0.6v-0.1
			c0,0,0,0-0.1,0c-0.4,0.7-1.1,1-2.1,1c-0.9,0-1.6-0.3-2.1-0.8s-0.8-1.3-0.8-2.4V206c0-0.1,0.1-0.2,0.2-0.2h1.6
			c0.1,0,0.2,0.1,0.2,0.2v7.2c0,1.2,0.5,1.8,1.5,1.8c0.5,0,0.9-0.2,1.1-0.5c0.3-0.4,0.4-0.8,0.4-1.4V206
			C232.7,205.8,232.8,205.8,233,205.8z"/>
		<path className="st0" d="M241.1,207.3h-1.5c-0.1,0-0.1,0-0.1,0.1v6c0,0.6,0.1,1,0.3,1.2s0.5,0.3,0.9,0.3h0.2c0.1,0,0.2,0.1,0.2,0.2
			v1.4c0,0.1-0.1,0.2-0.2,0.2h-0.7c-0.9,0-1.6-0.2-2.1-0.5c-0.5-0.4-0.7-1-0.7-2v-6.8c0-0.1,0-0.1-0.1-0.1h-0.8
			c-0.1,0-0.2-0.1-0.2-0.2V206c0-0.1,0.1-0.2,0.2-0.2h0.8c0.1,0,0.1,0,0.1-0.1v-2.4c0-0.1,0.1-0.2,0.2-0.2h1.6
			c0.1,0,0.2,0.1,0.2,0.2v2.4c0,0.1,0,0.1,0.1,0.1h1.5c0.1,0,0.2,0.1,0.2,0.2v1.1C241.3,207.2,241.3,207.3,241.1,207.3z"/>
		<path className="st0" d="M243.1,203.7c-0.3-0.3-0.4-0.6-0.4-1s0.1-0.7,0.4-1c0.3-0.3,0.6-0.4,1-0.4s0.7,0.1,1,0.4
			c0.3,0.3,0.4,0.6,0.4,1s-0.1,0.7-0.4,1c-0.3,0.3-0.6,0.4-1,0.4C243.7,204,243.4,203.9,243.1,203.7z M243.1,216.5V206
			c0-0.1,0.1-0.2,0.2-0.2h1.6c0.1,0,0.2,0.1,0.2,0.2v10.5c0,0.1-0.1,0.2-0.2,0.2h-1.6C243.2,216.7,243.1,216.6,243.1,216.5z"/>
	</g>
	<g>
		<path className="st0" d="M300.8,170.8c0-1.7,0-3.5-0.1-5.2c-0.1-1.8,1.1-3.3,2.8-3.8l23.2-6c2.1-0.5,3.4-2.6,3.1-4.8l-3-17.1
			c-0.4-2.1-2.3-3.6-4.5-3.4l-23.9,2.3c-1.8,0.2-3.4-0.9-3.9-2.6c-1.1-3.3-2.2-6.5-3.5-9.7c-0.7-1.6-0.1-3.5,1.3-4.5l19.8-13.6
			c1.8-1.2,2.3-3.6,1.3-5.5l-8.7-15c-1.1-1.9-3.4-2.6-5.4-1.7l-21.7,10.3c-1.6,0.8-3.5,0.3-4.6-1.1c-2.1-2.7-4.3-5.3-6.6-7.9
			c-1.2-1.3-1.3-3.3-0.3-4.7L280,57.2c1.3-1.8,1-4.2-0.7-5.6L266,40.4c-1.7-1.4-4.1-1.3-5.7,0.3l-16.8,17.1
			c-1.2,1.3-3.2,1.5-4.7,0.5c-2.9-1.8-5.9-3.5-8.9-5.1c-1.6-0.8-2.4-2.6-1.9-4.3l6.4-23.1c0.6-2.1-0.6-4.3-2.6-5l-16.3-5.9
			c-2-0.7-4.3,0.2-5.2,2.2l-10,21.8c-0.7,1.6-2.5,2.5-4.2,2.1c-3.3-0.7-6.7-1.3-10.1-1.8c-1.8-0.2-3.1-1.6-3.3-3.4l-1.9-23.9
			c-0.2-2.2-2-3.9-4.2-3.9h-17.4c-2.2,0-4,1.7-4.2,3.9l-1.9,23.9c-0.1,1.8-1.5,3.2-3.3,3.4c-3.4,0.5-6.8,1.1-10.1,1.8
			c-1.7,0.4-3.5-0.5-4.2-2.1l-10-21.8c-0.9-2-3.2-2.9-5.2-2.2L104,20.7c-2,0.7-3.2,2.9-2.6,5l6.4,23.1c0.5,1.7-0.3,3.5-1.9,4.3
			c-3,1.6-6,3.3-8.9,5.1c-1.5,0.9-3.4,0.7-4.7-0.5l-16.8-17c-1.5-1.6-4-1.7-5.7-0.3L56.5,51.6c-1.7,1.4-2,3.9-0.7,5.6l13.9,19.6
			c1,1.4,0.9,3.4-0.3,4.7c-2.3,2.5-4.5,5.2-6.6,7.9c-1.1,1.4-3,1.9-4.6,1.1L36.5,80.1c-2-0.9-4.3-0.2-5.4,1.7l-8.7,15
			c-1.1,1.9-0.5,4.3,1.3,5.5L43.4,116c1.5,1,2,2.9,1.3,4.5c-1.3,3.2-2.5,6.4-3.5,9.7c-0.5,1.7-2.2,2.8-3.9,2.6l-23.9-2.3
			c-2.2-0.2-4.1,1.3-4.5,3.4l-3,17.1c-0.4,2.1,1,4.2,3.1,4.8l23.2,6c1.7,0.4,2.9,2,2.8,3.8c-0.1,1.7-0.1,3.5-0.1,5.2s0,3.5,0.1,5.2
			c0.1,1.8-1.1,3.3-2.8,3.8l-23.2,6c-2.1,0.5-3.4,2.6-3.1,4.8l3,17.1c0.4,2.1,2.3,3.6,4.5,3.4l23.9-2.3c1.8-0.2,3.4,0.9,3.9,2.6
			c1.1,3.3,2.2,6.5,3.5,9.7c0.7,1.6,0.1,3.5-1.3,4.5l-19.8,13.6c-1.8,1.2-2.3,3.6-1.3,5.5l8.7,15c1.1,1.9,3.4,2.6,5.4,1.7l21.7-10.3
			c1.6-0.8,3.5-0.3,4.6,1.1c2.1,2.7,4.3,5.3,6.6,7.9c1.2,1.3,1.3,3.3,0.3,4.7l-13.9,19.6c-1.3,1.8-1,4.2,0.7,5.6l15.8,13.2l27-66.3
			C81.5,218.5,71.1,193,72.8,165c2.9-48.6,42.8-87.6,91.4-89.5c54.3-2.1,99,41.4,99,95.2c0,25.7-10.2,49-26.7,66.1l27,66.3
			l15.8-13.2c1.7-1.4,2-3.9,0.7-5.6l-14-19.5c-1-1.4-0.9-3.4,0.3-4.7c2.3-2.5,4.5-5.2,6.6-7.9c1.1-1.4,3-1.9,4.6-1.1l21.7,10.3
			c2,0.9,4.3,0.2,5.4-1.7l8.7-15c1.1-1.9,0.5-4.3-1.3-5.5l-19.8-13.6c-1.5-1-2-2.9-1.3-4.5c1.3-3.2,2.5-6.4,3.5-9.7
			c0.5-1.7,2.2-2.8,3.9-2.6l23.9,2.3c2.2,0.2,4.1-1.3,4.5-3.4l3-17.1c0.4-2.1-1-4.2-3.1-4.8l-23.2-6c-1.7-0.4-2.9-2-2.8-3.8
			C300.8,174.3,300.8,172.5,300.8,170.8z"/>
	</g>
	<g>
		<path className="st0" d="M103,161.2c15.7-4.6,44-21.3,64.8,6.1c0,0,13.9-11.8,28.3-11.7c14.1,0.1,35.7,11.8,59.7,8.5
			c-0.1-0.8-0.1-1.5-0.2-2.3c-4.4,0.2-18,0.5-30.4-3.4c-15.1-4.7-38.4-14.3-57,6.5c0,0-15.3-34.1-67.4-8.2l-16.7-14
			c-2.3,6.8-3.8,13.9-4.3,21.4C84.9,164.2,93.4,164,103,161.2z"/>
	</g>
	<g>
		<path className="st0" d="M139,136.7c10.8,1,20.3,7.3,29.3,24.4c0,0,11.1-19.3,27.5-17.1c16.1,2.1,42.2,17.8,59.5,14.4
			c-0.1-0.8-0.2-1.5-0.4-2.3c-3.4,0.2-13.4,0.4-20.1-2.1c-8.3-3.1-24.1-15-38.6-14.6c-17.7,0.6-27.8,16.8-27.8,16.8
			s-16.3-38.1-46.4-23.1l-19-22.3c-6.9,7.5-12.6,16.2-16.6,25.7c2.9,2.1,9.7,6,19.4,5.7C119.2,141.8,128.2,135.8,139,136.7z"/>
	</g>
	<g>
		<path className="st0" d="M168.7,151.1c0,0,8.9-20,27.9-21c20.1-1.1,30.2,24.8,57.7,22.2c-8.5-39.9-43.9-69.8-86.4-69.8
			c-22,0-42.1,8.1-57.6,21.4C124,100.1,155,98.3,168.7,151.1z"/>
	</g>
	<g>
		<path className="st0" d="M256.1,168.4h-82.6c-0.5,1.3-2.9,2.2-5.7,2.2s-5.1-0.9-5.7-2.2H79.6c0,0.8-0.1,1.6-0.1,2.4
			c0,0.8,0,1.6,0.1,2.3h176.5c0-0.8,0.1-1.6,0.1-2.3C256.2,170,256.1,169.2,256.1,168.4z"/>
	</g>
</g>
</svg>
