<svg width="24" height="27" viewBox="0 0 24 27" fill="none" xmlns="http://www.w3.org/2000/svg">
<g clip-path="url(#clip0_440_2044)">
<path d="M23.71 1.84195C23.575 1.70225 23.4045 1.60552 23.2185 1.56315C23.0325 1.52078 22.8388 1.53451 22.66 1.60275L0.660001 9.92275C0.470269 9.99759 0.306921 10.1307 0.191652 10.3044C0.0763829 10.4781 0.0146484 10.6841 0.0146484 10.8951C0.0146484 11.1062 0.0763829 11.3122 0.191652 11.4859C0.306921 11.6596 0.470269 11.7927 0.660001 11.8675L10.26 15.8611L14.1 25.8451C14.1721 26.0338 14.2958 26.1964 14.4557 26.3128C14.6157 26.4292 14.8049 26.4944 15 26.5003C15.2021 26.496 15.3982 26.4281 15.5624 26.3056C15.7266 26.1831 15.8513 26.0117 15.92 25.8139L23.92 2.93395C23.9881 2.74995 24.0046 2.54959 23.9674 2.35625C23.9302 2.16291 23.8409 1.98454 23.71 1.84195ZM15 22.5483L12.21 15.2683L17 10.2867L15.59 8.82035L10.76 13.8435L3.8 10.9003L21.33 4.31715L15 22.5483Z" fill="#06D6E3"/>
</g>
<defs>
<clipPath id="clip0_440_2044">
<rect width="24" height="26" fill="white" transform="translate(0 0.5)"/>
</clipPath>
</defs>
</svg>
