<svg width="24" height="23" viewBox="0 0 24 23" fill="none" xmlns="http://www.w3.org/2000/svg">
<path d="M17.8243 12.4561C17.7118 12.3436 17.5783 12.2544 17.4313 12.1935C17.2844 12.1327 17.1268 12.1013 16.9677 12.1013C16.8086 12.1013 16.651 12.1327 16.5041 12.1935C16.3571 12.2544 16.2236 12.3436 16.1112 12.4561L14.18 14.3851C13.2847 14.1188 11.614 13.5138 10.5551 12.4561C9.49622 11.3985 8.89045 9.7297 8.62392 8.83541L10.5551 6.90646C10.6677 6.79418 10.757 6.66082 10.818 6.51401C10.8789 6.3672 10.9103 6.20983 10.9103 6.0509C10.9103 5.89197 10.8789 5.7346 10.818 5.58779C10.757 5.44098 10.6677 5.30762 10.5551 5.19534L5.70898 0.354812C5.59657 0.242335 5.46305 0.153103 5.31607 0.0922202C5.1691 0.0313377 5.01154 0 4.85243 0C4.69332 0 4.53576 0.0313377 4.38879 0.0922202C4.24181 0.153103 4.1083 0.242335 3.99588 0.354812L0.710218 3.63669C0.249837 4.09654 -0.00942987 4.72823 0.00026235 5.37323C0.0281275 7.09645 0.484874 13.0818 5.20741 17.7989C9.92994 22.5159 15.9222 22.971 17.6486 23H17.6825C18.3222 23 18.9267 22.7483 19.3847 22.2909L22.6704 19.009C22.783 18.8967 22.8723 18.7633 22.9333 18.6165C22.9942 18.4697 23.0256 18.3124 23.0256 18.1534C23.0256 17.9945 22.9942 17.8371 22.9333 17.6903C22.8723 17.5435 22.783 17.4101 22.6704 17.2979L17.8243 12.4561ZM17.6704 20.5785C16.1584 20.5531 10.9852 20.1477 6.92051 16.0865C2.84251 12.0132 2.44755 6.82781 2.42332 5.34781L4.85243 2.9215L7.98544 6.0509L6.41894 7.6156C6.27653 7.75773 6.17184 7.93306 6.1143 8.12575C6.05676 8.31844 6.04821 8.52242 6.0894 8.71924C6.11848 8.85841 6.82964 12.1584 8.84078 14.1673C10.8519 16.1761 14.1558 16.8864 14.2951 16.9155C14.492 16.9578 14.6964 16.9499 14.8895 16.8926C15.0826 16.8353 15.2581 16.7304 15.4 16.5875L16.9677 15.0228L20.1007 18.1522L17.6704 20.5785Z" fill="#06D6E3"/>
</svg>
