<svg width="49" height="49" viewBox="0 0 49 49" fill="none" xmlns="http://www.w3.org/2000/svg">
<path d="M38.2273 15.1716C38.1588 15.1716 38.1132 15.1716 38.0447 15.1716H37.9306C33.6171 15.0349 30.3992 11.709 30.3992 7.6086C30.3992 3.41706 33.8225 0.0228246 37.9991 0.0228246C42.1756 0.0228246 45.599 3.43984 45.599 7.6086C45.5761 11.7318 42.3581 15.0577 38.2501 15.1944C38.2501 15.1716 38.2501 15.1716 38.2273 15.1716ZM37.9991 3.41707C35.694 3.41707 33.8225 5.28505 33.8225 7.58584C33.8225 9.84107 35.5799 11.6635 37.8393 11.7546C37.8621 11.7318 38.0447 11.7318 38.2501 11.7546C40.4639 11.6407 42.1756 9.81829 42.1984 7.58584C42.1984 5.28505 40.327 3.41707 37.9991 3.41707Z" fill="white"/>
<path d="M38.2506 31.9606C37.3605 31.9606 36.4704 31.8923 35.5804 31.7328C34.6446 31.5734 34.0284 30.685 34.1882 29.751C34.348 28.817 35.238 28.2019 36.1737 28.3614C38.9809 28.8398 41.9478 28.3158 43.9334 26.9946C45.0061 26.2884 45.5766 25.4 45.5766 24.5115C45.5766 23.6231 44.9832 22.7575 43.9334 22.0513C41.9478 20.73 38.9353 20.2061 36.1053 20.7073C35.1696 20.8895 34.2795 20.2517 34.1197 19.3177C33.96 18.3837 34.5762 17.4953 35.5119 17.3358C39.232 16.6752 43.089 17.3814 45.8277 19.2038C47.8361 20.5478 49 22.4613 49 24.5115C49 26.539 47.8589 28.4753 45.8277 29.8421C43.7508 31.2089 41.0578 31.9606 38.2506 31.9606Z" fill="white"/>
<path d="M10.7723 15.1716C10.7494 15.1716 10.7266 15.1716 10.7266 15.1716C6.61857 15.0349 3.4006 11.709 3.37777 7.60855C3.37777 3.41701 6.80115 0 10.9777 0C15.1542 0 18.5776 3.41702 18.5776 7.58578C18.5776 11.709 15.0768 15.0349 10.9688 15.1716C10.9231 15.1716 10.8179 15.1716 10.7723 15.1716ZM11.0104 11.7773C11.1474 11.7773 11.2458 11.7773 11.3885 11.7773C13.4197 11.6862 15.1998 9.86378 15.1998 7.60855C15.1998 5.30776 13.3284 3.43978 11.0233 3.43978C8.71824 3.43978 6.84679 5.30776 6.84679 7.60855C6.84679 9.841 8.5813 11.6406 10.7951 11.7773C10.8179 11.7545 10.9191 11.7773 11.0104 11.7773Z" fill="white"/>
<path d="M10.7494 31.9606C7.94223 31.9606 5.24917 31.2089 3.17233 29.8421C1.16395 28.4981 0 26.5618 0 24.5115C0 22.4841 1.16395 20.5478 3.17233 19.2038C5.91103 17.3814 9.76803 16.6752 13.4881 17.3358C14.4238 17.4953 15.04 18.3837 14.8803 19.3177C14.7205 20.2517 13.8304 20.8895 12.8947 20.7073C10.0647 20.2061 7.07498 20.73 5.0666 22.0513C3.99394 22.7575 3.42337 23.6231 3.42337 24.5115C3.42337 25.4 4.01676 26.2884 5.0666 26.9946C7.05215 28.3158 10.0191 28.8398 12.8262 28.3614C13.762 28.2019 14.652 28.8398 14.8118 29.751C14.9716 30.685 14.3554 31.5734 13.4196 31.7328C12.5296 31.8923 11.6395 31.9606 10.7494 31.9606Z" fill="white"/>
<path d="M24.5338 32.1883C24.4653 32.1883 24.4197 32.1883 24.3512 32.1883H24.2371C19.9236 32.0517 16.7057 28.7258 16.7057 24.6253C16.7057 20.4338 20.129 17.0396 24.3056 17.0396C28.4821 17.0396 31.9054 20.4566 31.9054 24.6253C31.8826 28.7485 28.6647 32.0744 24.5566 32.2111C24.5566 32.1883 24.5566 32.1883 24.5338 32.1883ZM24.3056 20.4338C22.0005 20.4338 20.129 22.3018 20.129 24.6026C20.129 26.8578 21.8864 28.6802 24.1458 28.7713C24.1686 28.7486 24.3512 28.7486 24.5566 28.7713C26.7704 28.6574 28.4821 26.835 28.5049 24.6026C28.5049 22.3246 26.6335 20.4338 24.3056 20.4338Z" fill="white"/>
<path d="M24.5338 49C21.7951 49 19.0564 48.2938 16.9339 46.8587C14.9255 45.5147 13.7616 43.6011 13.7616 41.5509C13.7616 39.5235 14.9027 37.5644 16.9339 36.2204C21.2017 33.3956 27.8887 33.3956 32.1337 36.2204C34.1421 37.5644 35.306 39.4779 35.306 41.5281C35.306 43.5556 34.1649 45.5147 32.1337 46.8587C30.0112 48.2711 27.2725 49 24.5338 49ZM18.8282 39.0907C17.7555 39.7969 17.1849 40.6853 17.1849 41.5737C17.1849 42.4621 17.7783 43.3278 18.8282 44.034C21.9092 46.1069 27.1356 46.1069 30.2166 44.034C31.2892 43.3278 31.8598 42.4394 31.8598 41.5509C31.8598 40.6625 31.2664 39.7969 30.2166 39.0907C27.1584 37.0177 21.932 37.0405 18.8282 39.0907Z" fill="white"/>
</svg>
