<svg width="43" height="45" viewBox="0 0 43 45" fill="none" xmlns="http://www.w3.org/2000/svg">
<path d="M21.5317 32.9658C19.7356 32.9658 17.9184 32.5053 16.5027 31.6054L3.78231 23.3803C1.41572 21.8525 0 19.2782 0 16.4737C0 13.6693 1.41572 11.095 3.78231 9.56717L16.5238 1.36301C19.3553 -0.45781 23.7715 -0.45781 26.5818 1.38394L39.2388 9.60903C41.5843 11.1368 43 13.7111 43 16.4947C43 19.2782 41.5843 21.8525 39.2388 23.3803L26.5818 31.6054C25.1661 32.5263 23.3489 32.9658 21.5317 32.9658ZM21.5317 3.14197C20.3273 3.14197 19.1229 3.41405 18.2565 4.00006L5.53612 12.2042C4.057 13.167 3.19066 14.7157 3.19066 16.4737C3.19066 18.2318 4.03587 19.7805 5.53612 20.7432L18.2565 28.9683C20.0103 30.0985 23.0953 30.0985 24.8491 28.9683L37.5061 20.7432C38.9853 19.7805 39.8305 18.2318 39.8305 16.4737C39.8305 14.7157 38.9853 13.167 37.5061 12.2042L24.8491 3.97913C23.9617 3.43498 22.7572 3.14197 21.5317 3.14197Z" fill="white"/>
<path d="M21.5106 45C20.5809 45 19.63 44.8744 18.8693 44.6233L12.1288 42.4048C8.93811 41.3584 6.42361 37.9051 6.44474 34.5774L6.46587 24.7617C6.46587 23.9036 7.1843 23.192 8.05064 23.192C8.91698 23.192 9.6354 23.9036 9.6354 24.7617L9.61427 34.5774C9.61427 36.5447 11.2624 38.805 13.143 39.4329L19.8836 41.6514C20.7288 41.9234 22.2924 41.9234 23.1376 41.6514L29.8782 39.4329C31.7587 38.805 33.4069 36.5447 33.4069 34.5983V24.8872C33.4069 24.0292 34.1253 23.3176 34.9917 23.3176C35.858 23.3176 36.5764 24.0292 36.5764 24.8872V34.5983C36.5764 37.926 34.0831 41.3584 30.8924 42.4257L24.1519 44.6442C23.3912 44.8744 22.4403 45 21.5106 45Z" fill="white"/>
<path d="M41.373 30.3497C40.5066 30.3497 39.7882 29.6381 39.7882 28.78V16.2226C39.7882 15.3645 40.5066 14.6529 41.373 14.6529C42.2393 14.6529 42.9577 15.3645 42.9577 16.2226V28.78C42.9577 29.6381 42.2393 30.3497 41.373 30.3497Z" fill="white"/>
</svg>
