<svg width="51" height="46" viewBox="0 0 51 46" fill="none" xmlns="http://www.w3.org/2000/svg">
<path d="M45.0319 22.3579H5.96806C3.88465 22.3579 2.17019 20.66 2.17019 18.5967V11.461C2.17019 9.99949 3.19013 8.51649 4.55737 7.97917L24.0893 0.241795C24.914 -0.0805983 26.086 -0.0805983 26.9107 0.241795L46.4426 7.97917C47.8098 8.51649 48.8298 10.021 48.8298 11.461V18.5967C48.8298 20.66 47.1153 22.3579 45.0319 22.3579ZM25.5 3.20782C25.4132 3.20782 25.3264 3.20771 25.283 3.2292L5.77268 10.9667C5.64247 11.0312 5.42551 11.3106 5.42551 11.461V18.5967C5.42551 18.8976 5.66423 19.134 5.96806 19.134H45.0319C45.3357 19.134 45.5744 18.8976 45.5744 18.5967V11.461C45.5744 11.3106 45.3792 11.0312 45.2273 10.9667L25.6953 3.2292C25.6519 3.20771 25.5868 3.20782 25.5 3.20782Z" fill="white"/>
<path d="M47.2021 46H3.79785C2.90806 46 2.17019 45.2692 2.17019 44.388V37.9402C2.17019 35.8769 3.88465 34.1789 5.96806 34.1789H45.0319C47.1153 34.1789 48.8298 35.8769 48.8298 37.9402V44.388C48.8298 45.2692 48.0919 46 47.2021 46ZM5.42551 42.7761H45.5744V37.9402C45.5744 37.6393 45.3357 37.4029 45.0319 37.4029H5.96806C5.66423 37.4029 5.42551 37.6393 5.42551 37.9402V42.7761Z" fill="white"/>
<path d="M8.1383 37.4029C7.24851 37.4029 6.51064 36.6721 6.51064 35.7909V20.7459C6.51064 19.8647 7.24851 19.1339 8.1383 19.1339C9.02808 19.1339 9.76596 19.8647 9.76596 20.7459V35.7909C9.76596 36.6721 9.02808 37.4029 8.1383 37.4029Z" fill="white"/>
<path d="M16.8191 37.4029C15.9293 37.4029 15.1915 36.6721 15.1915 35.7909V20.7459C15.1915 19.8647 15.9293 19.1339 16.8191 19.1339C17.7089 19.1339 18.4468 19.8647 18.4468 20.7459V35.7909C18.4468 36.6721 17.7089 37.4029 16.8191 37.4029Z" fill="white"/>
<path d="M25.5 37.4029C24.6102 37.4029 23.8723 36.6721 23.8723 35.7909V20.7459C23.8723 19.8647 24.6102 19.1339 25.5 19.1339C26.3898 19.1339 27.1276 19.8647 27.1276 20.7459V35.7909C27.1276 36.6721 26.3898 37.4029 25.5 37.4029Z" fill="white"/>
<path d="M34.1808 37.4029C33.2911 37.4029 32.5532 36.6721 32.5532 35.7909V20.7459C32.5532 19.8647 33.2911 19.1339 34.1808 19.1339C35.0706 19.1339 35.8085 19.8647 35.8085 20.7459V35.7909C35.8085 36.6721 35.0706 37.4029 34.1808 37.4029Z" fill="white"/>
<path d="M42.8617 37.4029C41.9719 37.4029 41.234 36.6721 41.234 35.7909V20.7459C41.234 19.8647 41.9719 19.1339 42.8617 19.1339C43.7515 19.1339 44.4893 19.8647 44.4893 20.7459V35.7909C44.4893 36.6721 43.7515 37.4029 42.8617 37.4029Z" fill="white"/>
<path d="M49.3723 46H1.62766C0.737872 46 0 45.2692 0 44.388C0 43.5068 0.737872 42.776 1.62766 42.776H49.3723C50.2621 42.776 51 43.5068 51 44.388C51 45.2692 50.2621 46 49.3723 46Z" fill="white"/>
<path d="M25.5 16.9846C22.8089 16.9846 20.617 14.8138 20.617 12.1487C20.617 9.4836 22.8089 7.31282 25.5 7.31282C28.191 7.31282 30.383 9.4836 30.383 12.1487C30.383 14.8138 28.191 16.9846 25.5 16.9846ZM25.5 10.5367C24.6102 10.5367 23.8723 11.2675 23.8723 12.1487C23.8723 13.0299 24.6102 13.7607 25.5 13.7607C26.3898 13.7607 27.1276 13.0299 27.1276 12.1487C27.1276 11.2675 26.3898 10.5367 25.5 10.5367Z" fill="white"/>
</svg>
